<?xml version="1.0" encoding="UTF-8"?> <svg xmlns="http://www.w3.org/2000/svg" width="1812" height="1008" viewBox="0 0 1812 1008" fill="none"><mask id="path-1-inside-1_1767_15377" fill="white"><path fill-rule="evenodd" clip-rule="evenodd" d="M528.44 679.145C524.303 827.852 576.495 948.054 679.054 990.917C831.823 1054.76 1043.39 924.877 1174.38 696.174C1185.08 792.149 1227.69 866.76 1299.38 896.721C1440.63 955.754 1641.26 819.109 1747.51 591.516C1853.76 363.922 1825.39 131.566 1684.14 72.5331C1562.04 21.5053 1395.57 116.685 1284.05 290.43C1278.84 159.691 1227.2 56.2379 1133.65 17.1387C981.821 -46.3144 771.923 81.5817 640.754 307.656C637.207 195.201 593.407 106.005 513.318 72.5331C372.069 13.5003 171.433 150.146 65.1854 377.739C-41.0627 605.332 -12.6891 837.689 128.56 896.721C250.58 947.718 416.918 852.687 528.44 679.145Z"></path></mask><path d="M679.054 990.917L676.74 996.453L676.74 996.453L679.054 990.917ZM528.44 679.145L534.438 679.311L535.037 657.781L523.393 675.901L528.44 679.145ZM1174.38 696.174L1180.35 695.51L1178.31 677.244L1169.18 693.192L1174.38 696.174ZM1299.38 896.721L1297.06 902.257L1297.06 902.257L1299.38 896.721ZM1684.14 72.5331L1681.82 78.0691L1681.82 78.0691L1684.14 72.5331ZM1284.05 290.43L1278.06 290.669L1278.81 309.697L1289.1 293.671L1284.05 290.43ZM1133.65 17.1387L1131.33 22.6746L1131.33 22.6746L1133.65 17.1387ZM640.754 307.656L634.757 307.845L635.418 328.808L645.943 310.667L640.754 307.656ZM513.318 72.5331L515.632 66.9971L515.632 66.9971L513.318 72.5331ZM128.56 896.721L126.246 902.257L126.246 902.257L128.56 896.721ZM681.368 985.381C582.181 943.928 530.33 826.968 534.438 679.311L522.443 678.978C518.276 828.735 570.809 952.181 676.74 996.453L681.368 985.381ZM1169.18 693.192C1104.1 806.817 1019.13 895.646 931.794 948.109C844.384 1000.62 755.366 1016.31 681.368 985.381L676.74 996.453C755.511 1029.37 848.659 1012.05 937.973 958.395C1027.36 904.7 1113.68 814.235 1179.59 699.156L1169.18 693.192ZM1168.42 696.839C1179.25 794.025 1222.61 871.14 1297.06 902.257L1301.69 891.185C1232.77 862.379 1190.9 790.273 1180.35 695.51L1168.42 696.839ZM1297.06 902.257C1370.3 932.864 1457.96 912.4 1539.95 856.562C1622.06 800.64 1699.43 708.684 1752.95 594.054L1742.07 588.978C1689.34 701.94 1613.27 792.103 1533.19 846.644C1452.99 901.27 1369.71 919.612 1301.69 891.185L1297.06 902.257ZM1752.95 594.054C1806.46 479.431 1826.22 363.313 1814.59 268.087C1802.97 172.951 1759.8 97.6505 1686.45 66.9971L1681.82 78.0691C1749.73 106.449 1791.36 176.843 1802.68 269.541C1813.99 362.15 1794.81 476.007 1742.07 588.978L1752.95 594.054ZM1686.45 66.9971C1623.15 40.5425 1549.03 52.2617 1477.23 91.9401C1405.38 131.645 1335.19 199.647 1279 287.189L1289.1 293.671C1344.43 207.468 1413.24 141.008 1483.03 102.443C1552.87 63.8525 1623.03 53.4959 1681.82 78.0691L1686.45 66.9971ZM1131.33 22.6746C1221.82 60.4919 1272.89 161.074 1278.06 290.669L1290.05 290.191C1284.79 158.308 1232.58 51.9838 1135.96 11.6027L1131.33 22.6746ZM645.943 310.667C711.11 198.35 795.701 110.67 882.523 58.9801C969.416 7.24755 1057.79 -8.06083 1131.33 22.6746L1135.96 11.6027C1057.68 -21.1149 965.189 -4.20172 876.384 48.6691C787.509 101.582 701.566 190.887 635.564 304.645L645.943 310.667ZM646.751 307.467C643.168 193.878 598.825 101.766 515.632 66.9971L511.004 78.0691C587.99 110.244 631.246 196.524 634.757 307.845L646.751 307.467ZM515.632 66.9971C442.399 36.3906 354.734 56.8549 272.749 112.692C190.639 168.614 113.262 260.57 59.7486 375.201L70.6221 380.277C123.357 267.314 199.422 177.151 279.504 122.61C359.71 67.9847 442.988 49.6428 511.004 78.0691L515.632 66.9971ZM59.7486 375.201C6.23898 489.823 -13.5229 605.941 -1.89453 701.168C9.72276 796.304 52.9013 871.604 126.246 902.257L130.873 891.185C62.9693 862.806 21.3367 792.412 10.017 699.713C-1.29165 607.105 17.8837 493.248 70.6221 380.277L59.7486 375.201ZM126.246 902.257C189.506 928.696 263.575 917.007 335.337 877.388C407.145 837.742 477.297 769.828 533.488 682.388L523.393 675.901C468.061 762.003 399.283 828.376 329.537 866.882C259.744 905.415 189.634 915.743 130.873 891.185L126.246 902.257Z" fill="#CFB9F6" mask="url(#path-1-inside-1_1767_15377)"></path></svg> 