<svg xmlns="http://www.w3.org/2000/svg" width="952" height="654" viewBox="0 0 952 654" fill="none"><g clip-path="url(#clip0_58_428)"><rect width="952" height="654" fill="#BEA0F2"/><mask id="path-1-outside-1_58_428" maskUnits="userSpaceOnUse" x="20.519" y="-82.1003" width="908" height="820" fill="black"><rect fill="white" x="20.519" y="-82.1003" width="908" height="820"/><path fill-rule="evenodd" clip-rule="evenodd" d="M119.29 383.603C144.921 383.603 168.175 358.818 185.234 318.55C207.018 427.69 261.75 505.104 325.823 505.104C360.983 505.104 393.33 481.793 418.963 442.721C450.438 610.832 549.152 733.526 666.055 733.526C808.313 733.526 923.637 551.837 923.637 327.713C923.637 103.588 808.313 -78.1003 666.055 -78.1003C582.146 -78.1003 507.609 -14.8909 460.579 82.9531C435.833 -12.5491 384.783 -78.1003 325.823 -78.1003C275.158 -78.1003 230.333 -29.6954 203.022 44.5245C187.097 -28.4278 155.575 -78.1003 119.29 -78.1003C66.9493 -78.1003 24.519 25.2555 24.519 152.751C24.519 280.247 66.9493 383.603 119.29 383.603Z"/></mask><path d="M185.234 318.55L189.157 317.767L186.616 305.035L181.551 316.99L185.234 318.55ZM418.963 442.721L422.895 441.985L421.067 432.222L415.619 440.527L418.963 442.721ZM460.579 82.9531L456.707 83.9565L459.449 94.538L464.184 84.686L460.579 82.9531ZM203.022 44.5245L199.114 45.3776L202.039 58.778L206.776 45.9059L203.022 44.5245ZM181.551 316.99C173.143 336.838 163.311 352.609 152.638 363.359C141.98 374.094 130.72 379.603 119.29 379.603V387.603C133.49 387.603 146.674 380.72 158.315 368.995C169.942 357.285 180.267 340.53 188.918 320.111L181.551 316.99ZM325.823 501.104C295.53 501.104 266.883 482.807 242.886 450.375C218.914 417.978 199.969 371.935 189.157 317.767L181.312 319.333C192.284 374.305 211.596 421.539 236.455 455.134C261.287 488.694 292.043 509.104 325.823 509.104V501.104ZM415.619 440.527C390.346 479.049 359.066 501.104 325.823 501.104V509.104C362.9 509.104 396.314 484.537 422.308 444.915L415.619 440.527ZM666.055 729.526C609.106 729.526 556.239 699.654 513.542 648.599C470.841 597.539 438.533 525.51 422.895 441.985L415.032 443.457C430.868 528.043 463.655 601.416 507.405 653.731C551.16 706.051 606.1 737.526 666.055 737.526V729.526ZM919.637 327.713C919.637 439.134 890.963 539.818 844.816 612.522C798.637 685.275 735.337 729.526 666.055 729.526V737.526C739.031 737.526 804.522 690.932 851.57 616.809C898.649 542.638 927.637 440.416 927.637 327.713H919.637ZM666.055 -74.1003C735.337 -74.1003 798.637 -29.8496 844.816 42.9031C890.963 115.607 919.637 216.292 919.637 327.713H927.637C927.637 215.009 898.649 112.787 851.57 38.616C804.522 -35.5067 739.031 -82.1003 666.055 -82.1003V-74.1003ZM464.184 84.686C510.886 -12.4762 584.335 -74.1003 666.055 -74.1003V-82.1003C579.958 -82.1003 504.331 -17.3055 456.974 81.2203L464.184 84.686ZM325.823 -74.1003C353.703 -74.1003 380.174 -58.6135 402.938 -30.8507C425.696 -3.09658 444.434 36.5891 456.707 83.9565L464.451 81.9498C451.979 33.8149 432.819 -7.02617 409.125 -35.9232C385.437 -64.8116 356.904 -82.1003 325.823 -82.1003V-74.1003ZM206.776 45.9059C220.299 9.15687 238.074 -20.9578 258.521 -41.8205C278.953 -62.6673 301.856 -74.1003 325.823 -74.1003V-82.1003C299.125 -82.1003 274.283 -69.3309 252.808 -47.4203C231.349 -25.5255 213.056 5.67219 199.268 43.1431L206.776 45.9059ZM119.29 -74.1003C135.461 -74.1003 151.36 -63.0095 165.466 -41.9211C179.502 -20.9385 191.216 9.19677 199.114 45.3776L206.93 43.6714C198.903 6.89988 186.893 -24.2772 172.116 -46.3691C157.409 -68.3549 139.404 -82.1003 119.29 -82.1003V-74.1003ZM28.519 152.751C28.519 89.3931 39.0693 32.2194 55.9771 -8.96634C64.4349 -29.5688 74.4048 -45.9775 85.271 -57.173C96.1254 -68.3561 107.62 -74.1003 119.29 -74.1003V-82.1003C104.789 -82.1003 91.3525 -74.9251 79.5304 -62.7448C67.7202 -50.5767 57.2687 -33.178 48.5764 -12.0045C31.184 30.3617 20.519 88.6138 20.519 152.751H28.519ZM119.29 379.603C107.62 379.603 96.1254 373.859 85.271 362.676C74.4048 351.48 64.4349 335.072 55.9771 314.469C39.0693 273.284 28.519 216.11 28.519 152.751H20.519C20.519 216.889 31.184 275.141 48.5764 317.507C57.2687 338.681 67.7202 356.08 79.5304 368.248C91.3525 380.428 104.789 387.603 119.29 387.603V379.603Z" fill="#003C54" mask="url(#path-1-outside-1_58_428)"/></g><defs><clipPath id="clip0_58_428"><rect width="952" height="654" fill="white"/></clipPath></defs></svg>